<?xml version="1.0" encoding="UTF-8" standalone="no"?>
<svg
   version="1.1"
   x="0px"
   y="0px"
   width="640"
   height="816"
   viewBox="0 0 640 816"
   enable-background="new 0 0 640 816"
   xml:space="preserve"
   id="svg1228599"
   xmlns="http://www.w3.org/2000/svg"
   xmlns:svg="http://www.w3.org/2000/svg"><defs
   id="defs1228603" />

<g
   id="drinkAnis">
	<g
   display="inline"
   id="g1228596">
		<linearGradient
   id="SVGID_157_"
   gradientUnits="userSpaceOnUse"
   x1="320.49561"
   y1="409.78131"
   x2="320.49561"
   y2="591.54462">
			<stop
   offset="0.3212"
   style="stop-color:#FFFFFF;stop-opacity:0.4"
   id="stop1228554" />
			<stop
   offset="0.7697"
   style="stop-color:#FFFFFF;stop-opacity:0"
   id="stop1228556" />
		</linearGradient>
		
		
		<g
   id="g1228571"
   style="fill:#ffffff;fill-opacity:1">
			<g
   id="g1228569"
   style="fill:#ffffff;fill-opacity:1">
				<g
   id="g1228567"
   style="fill:#ffffff;fill-opacity:1">
					<g
   id="g1228565"
   style="fill:#ffffff;fill-opacity:1">
						<path
   id="path1228563"
   style="display:inline;fill:#ffffff;fill-opacity:1"
   d="m 292.7168,407.04102 c -6.17327,3.15766 -8.49982,10.87057 -13.20196,15.76934 -9.22918,13.4221 -20.15089,25.64516 -28.79479,39.45951 -8.24148,13.3607 -4.29646,31.67186 7.35872,41.73117 11.65404,11.34878 27.80084,15.68204 43.17544,19.36571 7.51627,1.47588 9.46972,9.96361 8.41181,16.48091 -0.90551,8.48958 -0.2103,17.40677 -3.23765,25.4943 -3.56831,6.42192 -10.45369,10.90071 -17.81899,11.36898 11.94439,1.39599 24.15246,-8.31432 24.59587,-20.51685 1.35746,-9.04356 3.93901,-18.42042 1.83102,-27.52027 -2.21738,-8.98552 -11.75923,-12.07183 -19.81224,-13.42881 -15.98828,-3.88983 -33.63911,-11.26279 -40.71056,-27.26263 -4.00236,-9.60702 -0.85326,-20.45815 5.45322,-28.27184 11.53311,-15.36084 23.13621,-30.67238 34.33604,-46.28281 17.46159,-0.007 34.92318,-0.008 52.38477,0 11.51682,16.20039 23.71713,31.89821 35.46256,47.92413 7.82644,9.6974 8.25592,24.62161 -0.11524,34.15547 -10.87189,13.3381 -28.18044,17.98458 -44.2147,21.73538 -9.59929,2.26389 -14.30405,12.87733 -12.51983,22.03082 1.21427,8.3829 1.62669,17.08222 4.59568,25.0466 4.0675,8.14042 13.40998,13.3793 22.48684,12.39276 -10.40215,-0.58548 -20.20634,-9.52282 -19.7539,-20.32227 -0.6363,-8.26238 -2.07668,-16.67159 -0.96133,-24.92588 1.62702,-8.33487 11.4074,-8.76974 18.01448,-10.66674 17.16378,-4.20014 35.50321,-13.31511 42.76018,-30.46309 4.74982,-11.5193 1.50671,-24.81095 -6.15018,-34.27247 -11.89404,-15.83418 -23.84383,-31.62946 -35.40534,-47.71283 -3.93192,-2.68562 -8.98359,-0.64608 -13.39427,-1.30637 -14.92522,0.01 -29.85043,8.9e-4 -44.77565,-0.002 z" />
					</g>
				</g>
			</g>
		</g>
		<linearGradient
   id="SVGID_158_"
   gradientUnits="userSpaceOnUse"
   x1="320.49661"
   y1="461.88181"
   x2="320.49661"
   y2="420.68188">
			<stop
   offset="0.2788"
   style="stop-color:#D1D1D1;stop-opacity:0.1"
   id="stop1228573" />
			<stop
   offset="1"
   style="stop-color:#D1D1D1"
   id="stop1228575" />
		</linearGradient>
		
		<linearGradient
   id="SVGID_159_"
   gradientUnits="userSpaceOnUse"
   x1="320.49509"
   y1="462.6123"
   x2="320.49509"
   y2="514.28601">
			<stop
   offset="0.0061"
   style="stop-color:#E8F7FC"
   id="stop1228580" />
			<stop
   offset="0.4606"
   style="stop-color:#90B8B4;stop-opacity:0.06"
   id="stop1228582" />
			<stop
   offset="1"
   style="stop-color:#E8F7FC;stop-opacity:0.51"
   id="stop1228584" />
		</linearGradient>
		
		<linearGradient
   id="SVGID_160_"
   gradientUnits="userSpaceOnUse"
   x1="291.0513"
   y1="430.96091"
   x2="291.0513"
   y2="497.62689">
			<stop
   offset="0"
   style="stop-color:#FFFFFF;stop-opacity:0.79"
   id="stop1228589" />
			<stop
   offset="1"
   style="stop-color:#FFFFFF;stop-opacity:0.4"
   id="stop1228591" />
		</linearGradient>
		
	</g>
</g>

</svg>
