solid triangles

facet normal 0 0 1
	outer loop
		vertex 262.619 482.004 0
		vertex 262.325 478.45 0
		vertex 262.416 476.271 0
	endloop
endfacet
facet normal 0 0 1
	outer loop
		vertex 262.416 476.271 0
		vertex 262.683 474.106 0
		vertex 263.115 471.963 0
	endloop
endfacet
facet normal 0 0 1
	outer loop
		vertex 263.115 471.963 0
		vertex 263.699 469.852 0
		vertex 265.281 465.755 0
	endloop
endfacet
facet normal 0 0 1
	outer loop
		vertex 265.281 465.755 0
		vertex 267.339 461.882 0
		vertex 373.654 461.882 0
	endloop
endfacet
facet normal 0 0 1
	outer loop
		vertex 373.654 461.882 0
		vertex 375.711 465.755 0
		vertex 377.293 469.852 0
	endloop
endfacet
facet normal 0 0 1
	outer loop
		vertex 377.293 469.852 0
		vertex 377.876 471.963 0
		vertex 378.308 474.106 0
	endloop
endfacet
facet normal 0 0 1
	outer loop
		vertex 378.308 474.106 0
		vertex 378.575 476.271 0
		vertex 378.666 478.45 0
	endloop
endfacet
facet normal 0 0 1
	outer loop
		vertex 378.666 478.45 0
		vertex 378.372 482.004 0
		vertex 377.51 485.455 0
	endloop
endfacet
facet normal 0 0 1
	outer loop
		vertex 377.51 485.455 0
		vertex 376.108 488.786 0
		vertex 374.194 491.98 0
	endloop
endfacet
facet normal 0 0 1
	outer loop
		vertex 374.194 491.98 0
		vertex 371.798 495.018 0
		vertex 368.948 497.884 0
	endloop
endfacet
facet normal 0 0 1
	outer loop
		vertex 368.948 497.884 0
		vertex 365.672 500.56 0
		vertex 361.999 503.028 0
	endloop
endfacet
facet normal 0 0 1
	outer loop
		vertex 361.999 503.028 0
		vertex 357.958 505.271 0
		vertex 353.577 507.272 0
	endloop
endfacet
facet normal 0 0 1
	outer loop
		vertex 353.577 507.272 0
		vertex 348.885 509.012 0
		vertex 343.911 510.476 0
	endloop
endfacet
facet normal 0 0 1
	outer loop
		vertex 343.911 510.476 0
		vertex 338.682 511.645 0
		vertex 333.228 512.501 0
	endloop
endfacet
facet normal 0 0 1
	outer loop
		vertex 333.228 512.501 0
		vertex 327.578 513.028 0
		vertex 321.759 513.207 0
	endloop
endfacet
facet normal 0 0 1
	outer loop
		vertex 321.759 513.207 0
		vertex 319.233 513.207 0
		vertex 313.415 513.028 0
	endloop
endfacet
facet normal 0 0 1
	outer loop
		vertex 313.415 513.028 0
		vertex 307.764 512.501 0
		vertex 302.31 511.645 0
	endloop
endfacet
facet normal 0 0 1
	outer loop
		vertex 302.31 511.645 0
		vertex 297.082 510.476 0
		vertex 292.107 509.012 0
	endloop
endfacet
facet normal 0 0 1
	outer loop
		vertex 292.107 509.012 0
		vertex 287.415 507.272 0
		vertex 283.034 505.271 0
	endloop
endfacet
facet normal 0 0 1
	outer loop
		vertex 283.034 505.271 0
		vertex 278.993 503.028 0
		vertex 275.32 500.56 0
	endloop
endfacet
facet normal 0 0 1
	outer loop
		vertex 275.32 500.56 0
		vertex 272.044 497.884 0
		vertex 269.194 495.018 0
	endloop
endfacet
facet normal 0 0 1
	outer loop
		vertex 269.194 495.018 0
		vertex 266.797 491.98 0
		vertex 264.884 488.786 0
	endloop
endfacet
facet normal 0 0 1
	outer loop
		vertex 264.884 488.786 0
		vertex 263.481 485.455 0
		vertex 262.619 482.004 0
	endloop
endfacet
facet normal 0 0 1
	outer loop
		vertex 262.619 482.004 0
		vertex 262.416 476.271 0
		vertex 263.115 471.963 0
	endloop
endfacet
facet normal 0 0 1
	outer loop
		vertex 263.115 471.963 0
		vertex 265.281 465.755 0
		vertex 373.654 461.882 0
	endloop
endfacet
facet normal 0 0 1
	outer loop
		vertex 373.654 461.882 0
		vertex 377.293 469.852 0
		vertex 378.308 474.106 0
	endloop
endfacet
facet normal 0 0 1
	outer loop
		vertex 378.308 474.106 0
		vertex 378.666 478.45 0
		vertex 377.51 485.455 0
	endloop
endfacet
facet normal 0 0 1
	outer loop
		vertex 377.51 485.455 0
		vertex 374.194 491.98 0
		vertex 368.948 497.884 0
	endloop
endfacet
facet normal 0 0 1
	outer loop
		vertex 368.948 497.884 0
		vertex 361.999 503.028 0
		vertex 353.577 507.272 0
	endloop
endfacet
facet normal 0 0 1
	outer loop
		vertex 353.577 507.272 0
		vertex 343.911 510.476 0
		vertex 333.228 512.501 0
	endloop
endfacet
facet normal 0 0 1
	outer loop
		vertex 333.228 512.501 0
		vertex 321.759 513.207 0
		vertex 313.415 513.028 0
	endloop
endfacet
facet normal 0 0 1
	outer loop
		vertex 313.415 513.028 0
		vertex 302.31 511.645 0
		vertex 292.107 509.012 0
	endloop
endfacet
facet normal 0 0 1
	outer loop
		vertex 292.107 509.012 0
		vertex 283.034 505.271 0
		vertex 275.32 500.56 0
	endloop
endfacet
facet normal 0 0 1
	outer loop
		vertex 275.32 500.56 0
		vertex 269.194 495.018 0
		vertex 264.884 488.786 0
	endloop
endfacet
facet normal 0 0 1
	outer loop
		vertex 264.884 488.786 0
		vertex 262.619 482.004 0
		vertex 263.115 471.963 0
	endloop
endfacet
facet normal 0 0 1
	outer loop
		vertex 263.115 471.963 0
		vertex 373.654 461.882 0
		vertex 378.308 474.106 0
	endloop
endfacet
facet normal 0 0 1
	outer loop
		vertex 378.308 474.106 0
		vertex 377.51 485.455 0
		vertex 368.948 497.884 0
	endloop
endfacet
facet normal 0 0 1
	outer loop
		vertex 368.948 497.884 0
		vertex 353.577 507.272 0
		vertex 333.228 512.501 0
	endloop
endfacet
facet normal 0 0 1
	outer loop
		vertex 333.228 512.501 0
		vertex 313.415 513.028 0
		vertex 292.107 509.012 0
	endloop
endfacet
facet normal 0 0 1
	outer loop
		vertex 292.107 509.012 0
		vertex 275.32 500.56 0
		vertex 264.884 488.786 0
	endloop
endfacet
facet normal 0 0 1
	outer loop
		vertex 264.884 488.786 0
		vertex 263.115 471.963 0
		vertex 378.308 474.106 0
	endloop
endfacet
facet normal 0 0 1
	outer loop
		vertex 378.308 474.106 0
		vertex 368.948 497.884 0
		vertex 333.228 512.501 0
	endloop
endfacet
facet normal 0 0 1
	outer loop
		vertex 333.228 512.501 0
		vertex 292.107 509.012 0
		vertex 264.884 488.786 0
	endloop
endfacet
facet normal 0 0 1
	outer loop
		vertex 264.884 488.786 0
		vertex 378.308 474.106 0
		vertex 333.228 512.501 0
	endloop
endfacet
endsolid

