solid triangles

facet normal 0 0 1
	outer loop
		vertex 331.545 566.875 0
		vertex 332.183 561.395 0
		vertex 349.724 568.992 0
	endloop
endfacet
facet normal 0 0 1
	outer loop
		vertex 349.724 568.992 0
		vertex 332.183 561.395 0
		vertex 332.183 561.395 0
	endloop
endfacet
facet normal 0 0 1
	outer loop
		vertex 349.724 568.992 0
		vertex 332.183 561.395 0
		vertex 349.724 568.992 0
	endloop
endfacet
facet normal 0 0 1
	outer loop
		vertex 349.724 568.992 0
		vertex 332.183 561.395 0
		vertex 350.578 563.536 0
	endloop
endfacet
facet normal 0 0 1
	outer loop
		vertex 349.724 568.992 0
		vertex 350.578 563.536 0
		vertex 349.724 568.992 0
	endloop
endfacet
facet normal 0 0 1
	outer loop
		vertex 349.724 568.992 0
		vertex 350.578 563.536 0
		vertex 350.578 563.536 0
	endloop
endfacet
facet normal 0 0 1
	outer loop
		vertex 349.724 568.992 0
		vertex 350.578 563.536 0
		vertex 353.555 569.747 0
	endloop
endfacet
facet normal 0 0 1
	outer loop
		vertex 353.555 569.747 0
		vertex 350.578 563.536 0
		vertex 350.578 563.536 0
	endloop
endfacet
facet normal 0 0 1
	outer loop
		vertex 353.555 569.747 0
		vertex 350.578 563.536 0
		vertex 353.555 569.747 0
	endloop
endfacet
facet normal 0 0 1
	outer loop
		vertex 353.555 569.747 0
		vertex 350.578 563.536 0
		vertex 354.722 564.353 0
	endloop
endfacet
facet normal 0 0 1
	outer loop
		vertex 353.555 569.747 0
		vertex 354.722 564.353 0
		vertex 353.555 569.747 0
	endloop
endfacet
facet normal 0 0 1
	outer loop
		vertex 353.555 569.747 0
		vertex 354.722 564.353 0
		vertex 354.722 564.353 0
	endloop
endfacet
facet normal 0 0 1
	outer loop
		vertex 353.555 569.747 0
		vertex 354.722 564.353 0
		vertex 357.159 570.598 0
	endloop
endfacet
facet normal 0 0 1
	outer loop
		vertex 357.159 570.598 0
		vertex 354.722 564.353 0
		vertex 354.722 564.353 0
	endloop
endfacet
facet normal 0 0 1
	outer loop
		vertex 357.159 570.598 0
		vertex 354.722 564.353 0
		vertex 357.159 570.598 0
	endloop
endfacet
facet normal 0 0 1
	outer loop
		vertex 357.159 570.598 0
		vertex 354.722 564.353 0
		vertex 358.54 565.254 0
	endloop
endfacet
facet normal 0 0 1
	outer loop
		vertex 357.159 570.598 0
		vertex 358.54 565.254 0
		vertex 357.159 570.598 0
	endloop
endfacet
facet normal 0 0 1
	outer loop
		vertex 357.159 570.598 0
		vertex 358.54 565.254 0
		vertex 358.54 565.254 0
	endloop
endfacet
facet normal 0 0 1
	outer loop
		vertex 357.159 570.598 0
		vertex 358.54 565.254 0
		vertex 360.449 571.523 0
	endloop
endfacet
facet normal 0 0 1
	outer loop
		vertex 360.449 571.523 0
		vertex 358.54 565.254 0
		vertex 358.54 565.254 0
	endloop
endfacet
facet normal 0 0 1
	outer loop
		vertex 360.449 571.523 0
		vertex 358.54 565.254 0
		vertex 360.449 571.523 0
	endloop
endfacet
facet normal 0 0 1
	outer loop
		vertex 360.449 571.523 0
		vertex 358.54 565.254 0
		vertex 362.075 566.248 0
	endloop
endfacet
facet normal 0 0 1
	outer loop
		vertex 360.449 571.523 0
		vertex 362.075 566.248 0
		vertex 360.449 571.523 0
	endloop
endfacet
facet normal 0 0 1
	outer loop
		vertex 360.449 571.523 0
		vertex 362.075 566.248 0
		vertex 362.075 566.248 0
	endloop
endfacet
facet normal 0 0 1
	outer loop
		vertex 360.449 571.523 0
		vertex 362.075 566.248 0
		vertex 363.398 572.513 0
	endloop
endfacet
facet normal 0 0 1
	outer loop
		vertex 363.398 572.513 0
		vertex 362.075 566.248 0
		vertex 362.075 566.248 0
	endloop
endfacet
facet normal 0 0 1
	outer loop
		vertex 363.398 572.513 0
		vertex 362.075 566.248 0
		vertex 363.398 572.513 0
	endloop
endfacet
facet normal 0 0 1
	outer loop
		vertex 363.398 572.513 0
		vertex 362.075 566.248 0
		vertex 365.31 567.334 0
	endloop
endfacet
facet normal 0 0 1
	outer loop
		vertex 363.398 572.513 0
		vertex 365.31 567.334 0
		vertex 363.398 572.513 0
	endloop
endfacet
facet normal 0 0 1
	outer loop
		vertex 363.398 572.513 0
		vertex 365.31 567.334 0
		vertex 365.31 567.334 0
	endloop
endfacet
facet normal 0 0 1
	outer loop
		vertex 363.398 572.513 0
		vertex 365.31 567.334 0
		vertex 365.977 573.553 0
	endloop
endfacet
facet normal 0 0 1
	outer loop
		vertex 365.977 573.553 0
		vertex 365.31 567.334 0
		vertex 365.31 567.334 0
	endloop
endfacet
facet normal 0 0 1
	outer loop
		vertex 365.977 573.553 0
		vertex 365.31 567.334 0
		vertex 365.977 573.553 0
	endloop
endfacet
facet normal 0 0 1
	outer loop
		vertex 365.977 573.553 0
		vertex 365.31 567.334 0
		vertex 368.232 568.513 0
	endloop
endfacet
facet normal 0 0 1
	outer loop
		vertex 365.977 573.553 0
		vertex 368.232 568.513 0
		vertex 365.977 573.553 0
	endloop
endfacet
facet normal 0 0 1
	outer loop
		vertex 365.977 573.553 0
		vertex 368.232 568.513 0
		vertex 368.232 568.513 0
	endloop
endfacet
facet normal 0 0 1
	outer loop
		vertex 365.977 573.553 0
		vertex 368.232 568.513 0
		vertex 368.153 574.626 0
	endloop
endfacet
facet normal 0 0 1
	outer loop
		vertex 368.153 574.626 0
		vertex 368.232 568.513 0
		vertex 368.232 568.513 0
	endloop
endfacet
facet normal 0 0 1
	outer loop
		vertex 368.153 574.626 0
		vertex 368.232 568.513 0
		vertex 368.153 574.626 0
	endloop
endfacet
facet normal 0 0 1
	outer loop
		vertex 368.153 574.626 0
		vertex 368.232 568.513 0
		vertex 370.829 569.793 0
	endloop
endfacet
facet normal 0 0 1
	outer loop
		vertex 368.153 574.626 0
		vertex 370.829 569.793 0
		vertex 368.153 574.626 0
	endloop
endfacet
facet normal 0 0 1
	outer loop
		vertex 368.153 574.626 0
		vertex 370.829 569.793 0
		vertex 370.829 569.793 0
	endloop
endfacet
facet normal 0 0 1
	outer loop
		vertex 368.153 574.626 0
		vertex 370.829 569.793 0
		vertex 369.893 575.7 0
	endloop
endfacet
facet normal 0 0 1
	outer loop
		vertex 369.893 575.7 0
		vertex 370.829 569.793 0
		vertex 370.829 569.793 0
	endloop
endfacet
facet normal 0 0 1
	outer loop
		vertex 369.893 575.7 0
		vertex 370.829 569.793 0
		vertex 369.893 575.7 0
	endloop
endfacet
facet normal 0 0 1
	outer loop
		vertex 369.893 575.7 0
		vertex 370.829 569.793 0
		vertex 373.092 571.191 0
	endloop
endfacet
facet normal 0 0 1
	outer loop
		vertex 369.893 575.7 0
		vertex 373.092 571.191 0
		vertex 369.893 575.7 0
	endloop
endfacet
facet normal 0 0 1
	outer loop
		vertex 369.893 575.7 0
		vertex 373.092 571.191 0
		vertex 373.092 571.191 0
	endloop
endfacet
facet normal 0 0 1
	outer loop
		vertex 369.893 575.7 0
		vertex 373.092 571.191 0
		vertex 371.163 576.729 0
	endloop
endfacet
facet normal 0 0 1
	outer loop
		vertex 371.163 576.729 0
		vertex 373.092 571.191 0
		vertex 373.092 571.191 0
	endloop
endfacet
facet normal 0 0 1
	outer loop
		vertex 371.163 576.729 0
		vertex 373.092 571.191 0
		vertex 371.163 576.729 0
	endloop
endfacet
facet normal 0 0 1
	outer loop
		vertex 371.163 576.729 0
		vertex 373.092 571.191 0
		vertex 375.01 572.744 0
	endloop
endfacet
facet normal 0 0 1
	outer loop
		vertex 371.163 576.729 0
		vertex 375.01 572.744 0
		vertex 371.163 576.729 0
	endloop
endfacet
facet normal 0 0 1
	outer loop
		vertex 371.163 576.729 0
		vertex 375.01 572.744 0
		vertex 375.01 572.744 0
	endloop
endfacet
facet normal 0 0 1
	outer loop
		vertex 371.163 576.729 0
		vertex 375.01 572.744 0
		vertex 371.954 577.638 0
	endloop
endfacet
facet normal 0 0 1
	outer loop
		vertex 371.954 577.638 0
		vertex 375.01 572.744 0
		vertex 375.01 572.744 0
	endloop
endfacet
facet normal 0 0 1
	outer loop
		vertex 371.954 577.638 0
		vertex 375.01 572.744 0
		vertex 371.954 577.638 0
	endloop
endfacet
facet normal 0 0 1
	outer loop
		vertex 371.954 577.638 0
		vertex 375.01 572.744 0
		vertex 376.551 574.515 0
	endloop
endfacet
facet normal 0 0 1
	outer loop
		vertex 371.954 577.638 0
		vertex 376.551 574.515 0
		vertex 371.954 577.638 0
	endloop
endfacet
facet normal 0 0 1
	outer loop
		vertex 371.954 577.638 0
		vertex 376.551 574.515 0
		vertex 376.551 574.515 0
	endloop
endfacet
facet normal 0 0 1
	outer loop
		vertex 371.954 577.638 0
		vertex 376.551 574.515 0
		vertex 372.321 578.347 0
	endloop
endfacet
facet normal 0 0 1
	outer loop
		vertex 372.321 578.347 0
		vertex 376.551 574.515 0
		vertex 376.551 574.515 0
	endloop
endfacet
facet normal 0 0 1
	outer loop
		vertex 372.321 578.347 0
		vertex 376.551 574.515 0
		vertex 372.321 578.347 0
	endloop
endfacet
facet normal 0 0 1
	outer loop
		vertex 372.321 578.347 0
		vertex 376.551 574.515 0
		vertex 377.615 576.572 0
	endloop
endfacet
facet normal 0 0 1
	outer loop
		vertex 372.321 578.347 0
		vertex 377.615 576.572 0
		vertex 372.321 578.347 0
	endloop
endfacet
facet normal 0 0 1
	outer loop
		vertex 372.321 578.347 0
		vertex 377.615 576.572 0
		vertex 377.615 576.572 0
	endloop
endfacet
facet normal 0 0 1
	outer loop
		vertex 372.321 578.347 0
		vertex 377.615 576.572 0
		vertex 372.405 578.841 0
	endloop
endfacet
facet normal 0 0 1
	outer loop
		vertex 372.405 578.841 0
		vertex 377.615 576.572 0
		vertex 377.615 576.572 0
	endloop
endfacet
facet normal 0 0 1
	outer loop
		vertex 372.405 578.841 0
		vertex 377.615 576.572 0
		vertex 372.405 578.841 0
	endloop
endfacet
facet normal 0 0 1
	outer loop
		vertex 372.405 578.841 0
		vertex 377.615 576.572 0
		vertex 378.017 578.917 0
	endloop
endfacet
facet normal 0 0 1
	outer loop
		vertex 372.405 578.841 0
		vertex 378.017 578.917 0
		vertex 372.405 578.841 0
	endloop
endfacet
facet normal 0 0 1
	outer loop
		vertex 372.405 578.841 0
		vertex 378.017 578.917 0
		vertex 378.017 578.917 0
	endloop
endfacet
facet normal 0 0 1
	outer loop
		vertex 372.405 578.841 0
		vertex 378.017 578.917 0
		vertex 372.271 579.516 0
	endloop
endfacet
facet normal 0 0 1
	outer loop
		vertex 372.271 579.516 0
		vertex 378.017 578.917 0
		vertex 378.017 578.917 0
	endloop
endfacet
facet normal 0 0 1
	outer loop
		vertex 372.271 579.516 0
		vertex 378.017 578.917 0
		vertex 372.271 579.516 0
	endloop
endfacet
facet normal 0 0 1
	outer loop
		vertex 372.271 579.516 0
		vertex 378.017 578.917 0
		vertex 377.494 581.539 0
	endloop
endfacet
facet normal 0 0 1
	outer loop
		vertex 372.271 579.516 0
		vertex 377.494 581.539 0
		vertex 372.271 579.516 0
	endloop
endfacet
facet normal 0 0 1
	outer loop
		vertex 372.271 579.516 0
		vertex 377.494 581.539 0
		vertex 377.494 581.539 0
	endloop
endfacet
facet normal 0 0 1
	outer loop
		vertex 372.271 579.516 0
		vertex 377.494 581.539 0
		vertex 371.737 580.401 0
	endloop
endfacet
facet normal 0 0 1
	outer loop
		vertex 371.737 580.401 0
		vertex 377.494 581.539 0
		vertex 377.494 581.539 0
	endloop
endfacet
facet normal 0 0 1
	outer loop
		vertex 371.737 580.401 0
		vertex 377.494 581.539 0
		vertex 371.737 580.401 0
	endloop
endfacet
facet normal 0 0 1
	outer loop
		vertex 371.737 580.401 0
		vertex 377.494 581.539 0
		vertex 376.103 583.847 0
	endloop
endfacet
facet normal 0 0 1
	outer loop
		vertex 371.737 580.401 0
		vertex 376.103 583.847 0
		vertex 371.737 580.401 0
	endloop
endfacet
facet normal 0 0 1
	outer loop
		vertex 371.737 580.401 0
		vertex 376.103 583.847 0
		vertex 376.103 583.847 0
	endloop
endfacet
facet normal 0 0 1
	outer loop
		vertex 371.737 580.401 0
		vertex 376.103 583.847 0
		vertex 370.594 581.525 0
	endloop
endfacet
facet normal 0 0 1
	outer loop
		vertex 370.594 581.525 0
		vertex 376.103 583.847 0
		vertex 376.103 583.847 0
	endloop
endfacet
facet normal 0 0 1
	outer loop
		vertex 370.594 581.525 0
		vertex 376.103 583.847 0
		vertex 370.594 581.525 0
	endloop
endfacet
facet normal 0 0 1
	outer loop
		vertex 370.594 581.525 0
		vertex 376.103 583.847 0
		vertex 374.12 585.797 0
	endloop
endfacet
facet normal 0 0 1
	outer loop
		vertex 370.594 581.525 0
		vertex 374.12 585.797 0
		vertex 370.594 581.525 0
	endloop
endfacet
facet normal 0 0 1
	outer loop
		vertex 370.594 581.525 0
		vertex 374.12 585.797 0
		vertex 374.12 585.797 0
	endloop
endfacet
facet normal 0 0 1
	outer loop
		vertex 370.594 581.525 0
		vertex 374.12 585.797 0
		vertex 368.802 582.759 0
	endloop
endfacet
facet normal 0 0 1
	outer loop
		vertex 368.802 582.759 0
		vertex 374.12 585.797 0
		vertex 374.12 585.797 0
	endloop
endfacet
facet normal 0 0 1
	outer loop
		vertex 368.802 582.759 0
		vertex 374.12 585.797 0
		vertex 368.802 582.759 0
	endloop
endfacet
facet normal 0 0 1
	outer loop
		vertex 368.802 582.759 0
		vertex 374.12 585.797 0
		vertex 371.654 587.495 0
	endloop
endfacet
facet normal 0 0 1
	outer loop
		vertex 368.802 582.759 0
		vertex 371.654 587.495 0
		vertex 368.802 582.759 0
	endloop
endfacet
facet normal 0 0 1
	outer loop
		vertex 368.802 582.759 0
		vertex 371.654 587.495 0
		vertex 371.654 587.495 0
	endloop
endfacet
facet normal 0 0 1
	outer loop
		vertex 368.802 582.759 0
		vertex 371.654 587.495 0
		vertex 366.403 584.011 0
	endloop
endfacet
facet normal 0 0 1
	outer loop
		vertex 366.403 584.011 0
		vertex 371.654 587.495 0
		vertex 371.654 587.495 0
	endloop
endfacet
facet normal 0 0 1
	outer loop
		vertex 366.403 584.011 0
		vertex 371.654 587.495 0
		vertex 366.403 584.011 0
	endloop
endfacet
facet normal 0 0 1
	outer loop
		vertex 366.403 584.011 0
		vertex 371.654 587.495 0
		vertex 368.733 589.019 0
	endloop
endfacet
facet normal 0 0 1
	outer loop
		vertex 366.403 584.011 0
		vertex 368.733 589.019 0
		vertex 366.403 584.011 0
	endloop
endfacet
facet normal 0 0 1
	outer loop
		vertex 366.403 584.011 0
		vertex 368.733 589.019 0
		vertex 368.733 589.019 0
	endloop
endfacet
facet normal 0 0 1
	outer loop
		vertex 366.403 584.011 0
		vertex 368.733 589.019 0
		vertex 363.449 585.226 0
	endloop
endfacet
facet normal 0 0 1
	outer loop
		vertex 363.449 585.226 0
		vertex 368.733 589.019 0
		vertex 368.733 589.019 0
	endloop
endfacet
facet normal 0 0 1
	outer loop
		vertex 363.449 585.226 0
		vertex 368.733 589.019 0
		vertex 363.449 585.226 0
	endloop
endfacet
facet normal 0 0 1
	outer loop
		vertex 363.449 585.226 0
		vertex 368.733 589.019 0
		vertex 365.37 590.402 0
	endloop
endfacet
facet normal 0 0 1
	outer loop
		vertex 363.449 585.226 0
		vertex 365.37 590.402 0
		vertex 363.449 585.226 0
	endloop
endfacet
facet normal 0 0 1
	outer loop
		vertex 363.449 585.226 0
		vertex 365.37 590.402 0
		vertex 365.37 590.402 0
	endloop
endfacet
facet normal 0 0 1
	outer loop
		vertex 363.449 585.226 0
		vertex 365.37 590.402 0
		vertex 359.993 586.372 0
	endloop
endfacet
facet normal 0 0 1
	outer loop
		vertex 359.993 586.372 0
		vertex 365.37 590.402 0
		vertex 365.37 590.402 0
	endloop
endfacet
facet normal 0 0 1
	outer loop
		vertex 359.993 586.372 0
		vertex 365.37 590.402 0
		vertex 359.993 586.372 0
	endloop
endfacet
facet normal 0 0 1
	outer loop
		vertex 359.993 586.372 0
		vertex 365.37 590.402 0
		vertex 361.583 591.658 0
	endloop
endfacet
facet normal 0 0 1
	outer loop
		vertex 359.993 586.372 0
		vertex 361.583 591.658 0
		vertex 359.993 586.372 0
	endloop
endfacet
facet normal 0 0 1
	outer loop
		vertex 359.993 586.372 0
		vertex 361.583 591.658 0
		vertex 361.583 591.658 0
	endloop
endfacet
facet normal 0 0 1
	outer loop
		vertex 359.993 586.372 0
		vertex 361.583 591.658 0
		vertex 356.08 587.43 0
	endloop
endfacet
facet normal 0 0 1
	outer loop
		vertex 356.08 587.43 0
		vertex 361.583 591.658 0
		vertex 361.583 591.658 0
	endloop
endfacet
facet normal 0 0 1
	outer loop
		vertex 356.08 587.43 0
		vertex 361.583 591.658 0
		vertex 356.08 587.43 0
	endloop
endfacet
facet normal 0 0 1
	outer loop
		vertex 356.08 587.43 0
		vertex 361.583 591.658 0
		vertex 357.394 592.79 0
	endloop
endfacet
facet normal 0 0 1
	outer loop
		vertex 356.08 587.43 0
		vertex 357.394 592.79 0
		vertex 356.08 587.43 0
	endloop
endfacet
facet normal 0 0 1
	outer loop
		vertex 356.08 587.43 0
		vertex 357.394 592.79 0
		vertex 357.394 592.79 0
	endloop
endfacet
facet normal 0 0 1
	outer loop
		vertex 356.08 587.43 0
		vertex 357.394 592.79 0
		vertex 351.753 588.382 0
	endloop
endfacet
facet normal 0 0 1
	outer loop
		vertex 351.753 588.382 0
		vertex 357.394 592.79 0
		vertex 357.394 592.79 0
	endloop
endfacet
facet normal 0 0 1
	outer loop
		vertex 351.753 588.382 0
		vertex 357.394 592.79 0
		vertex 351.753 588.382 0
	endloop
endfacet
facet normal 0 0 1
	outer loop
		vertex 351.753 588.382 0
		vertex 357.394 592.79 0
		vertex 352.829 593.795 0
	endloop
endfacet
facet normal 0 0 1
	outer loop
		vertex 351.753 588.382 0
		vertex 352.829 593.795 0
		vertex 351.753 588.382 0
	endloop
endfacet
facet normal 0 0 1
	outer loop
		vertex 351.753 588.382 0
		vertex 352.829 593.795 0
		vertex 352.829 593.795 0
	endloop
endfacet
facet normal 0 0 1
	outer loop
		vertex 351.753 588.382 0
		vertex 352.829 593.795 0
		vertex 347.052 589.217 0
	endloop
endfacet
facet normal 0 0 1
	outer loop
		vertex 347.052 589.217 0
		vertex 352.829 593.795 0
		vertex 352.829 593.795 0
	endloop
endfacet
facet normal 0 0 1
	outer loop
		vertex 347.052 589.217 0
		vertex 352.829 593.795 0
		vertex 347.052 589.217 0
	endloop
endfacet
facet normal 0 0 1
	outer loop
		vertex 347.052 589.217 0
		vertex 352.829 593.795 0
		vertex 347.917 594.668 0
	endloop
endfacet
facet normal 0 0 1
	outer loop
		vertex 347.052 589.217 0
		vertex 347.917 594.668 0
		vertex 347.052 589.217 0
	endloop
endfacet
facet normal 0 0 1
	outer loop
		vertex 347.052 589.217 0
		vertex 347.917 594.668 0
		vertex 347.917 594.668 0
	endloop
endfacet
facet normal 0 0 1
	outer loop
		vertex 347.052 589.217 0
		vertex 347.917 594.668 0
		vertex 342.014 589.923 0
	endloop
endfacet
facet normal 0 0 1
	outer loop
		vertex 342.014 589.923 0
		vertex 347.917 594.668 0
		vertex 347.917 594.668 0
	endloop
endfacet
facet normal 0 0 1
	outer loop
		vertex 342.014 589.923 0
		vertex 347.917 594.668 0
		vertex 342.014 589.923 0
	endloop
endfacet
facet normal 0 0 1
	outer loop
		vertex 342.014 589.923 0
		vertex 347.917 594.668 0
		vertex 342.688 595.4 0
	endloop
endfacet
facet normal 0 0 1
	outer loop
		vertex 342.014 589.923 0
		vertex 342.688 595.4 0
		vertex 342.014 589.923 0
	endloop
endfacet
facet normal 0 0 1
	outer loop
		vertex 342.014 589.923 0
		vertex 342.688 595.4 0
		vertex 342.688 595.4 0
	endloop
endfacet
facet normal 0 0 1
	outer loop
		vertex 342.014 589.923 0
		vertex 342.688 595.4 0
		vertex 336.677 590.489 0
	endloop
endfacet
facet normal 0 0 1
	outer loop
		vertex 336.677 590.489 0
		vertex 342.688 595.4 0
		vertex 342.688 595.4 0
	endloop
endfacet
facet normal 0 0 1
	outer loop
		vertex 336.677 590.489 0
		vertex 342.688 595.4 0
		vertex 336.677 590.489 0
	endloop
endfacet
facet normal 0 0 1
	outer loop
		vertex 336.677 590.489 0
		vertex 342.688 595.4 0
		vertex 337.173 595.985 0
	endloop
endfacet
facet normal 0 0 1
	outer loop
		vertex 336.677 590.489 0
		vertex 337.173 595.985 0
		vertex 336.677 590.489 0
	endloop
endfacet
facet normal 0 0 1
	outer loop
		vertex 336.677 590.489 0
		vertex 337.173 595.985 0
		vertex 337.173 595.985 0
	endloop
endfacet
facet normal 0 0 1
	outer loop
		vertex 336.677 590.489 0
		vertex 337.173 595.985 0
		vertex 331.077 590.905 0
	endloop
endfacet
facet normal 0 0 1
	outer loop
		vertex 331.077 590.905 0
		vertex 337.173 595.985 0
		vertex 337.173 595.985 0
	endloop
endfacet
facet normal 0 0 1
	outer loop
		vertex 331.077 590.905 0
		vertex 337.173 595.985 0
		vertex 331.077 590.905 0
	endloop
endfacet
facet normal 0 0 1
	outer loop
		vertex 331.077 590.905 0
		vertex 337.173 595.985 0
		vertex 331.403 596.413 0
	endloop
endfacet
facet normal 0 0 1
	outer loop
		vertex 331.077 590.905 0
		vertex 331.403 596.413 0
		vertex 331.077 590.905 0
	endloop
endfacet
facet normal 0 0 1
	outer loop
		vertex 331.077 590.905 0
		vertex 331.403 596.413 0
		vertex 331.403 596.413 0
	endloop
endfacet
facet normal 0 0 1
	outer loop
		vertex 331.077 590.905 0
		vertex 331.403 596.413 0
		vertex 325.25 591.161 0
	endloop
endfacet
facet normal 0 0 1
	outer loop
		vertex 325.25 591.161 0
		vertex 331.403 596.413 0
		vertex 331.403 596.413 0
	endloop
endfacet
facet normal 0 0 1
	outer loop
		vertex 325.25 591.161 0
		vertex 331.403 596.413 0
		vertex 325.25 591.161 0
	endloop
endfacet
facet normal 0 0 1
	outer loop
		vertex 325.25 591.161 0
		vertex 331.403 596.413 0
		vertex 325.412 596.677 0
	endloop
endfacet
facet normal 0 0 1
	outer loop
		vertex 325.25 591.161 0
		vertex 325.412 596.677 0
		vertex 325.25 591.161 0
	endloop
endfacet
facet normal 0 0 1
	outer loop
		vertex 325.25 591.161 0
		vertex 325.412 596.677 0
		vertex 325.412 596.677 0
	endloop
endfacet
facet normal 0 0 1
	outer loop
		vertex 325.25 591.161 0
		vertex 325.412 596.677 0
		vertex 319.272 591.248 0
	endloop
endfacet
facet normal 0 0 1
	outer loop
		vertex 319.272 591.248 0
		vertex 325.412 596.677 0
		vertex 325.412 596.677 0
	endloop
endfacet
facet normal 0 0 1
	outer loop
		vertex 319.272 591.248 0
		vertex 325.412 596.677 0
		vertex 319.272 591.248 0
	endloop
endfacet
facet normal 0 0 1
	outer loop
		vertex 319.272 591.248 0
		vertex 325.412 596.677 0
		vertex 319.192 596.768 0
	endloop
endfacet
facet normal 0 0 1
	outer loop
		vertex 319.272 591.248 0
		vertex 319.192 596.768 0
		vertex 319.272 591.248 0
	endloop
endfacet
facet normal 0 0 1
	outer loop
		vertex 319.272 591.248 0
		vertex 319.192 596.768 0
		vertex 319.192 596.768 0
	endloop
endfacet
facet normal 0 0 1
	outer loop
		vertex 319.272 591.248 0
		vertex 319.192 596.768 0
		vertex 301.744 590.484 0
	endloop
endfacet
facet normal 0 0 1
	outer loop
		vertex 301.744 590.484 0
		vertex 319.192 596.768 0
		vertex 319.192 596.768 0
	endloop
endfacet
facet normal 0 0 1
	outer loop
		vertex 301.744 590.484 0
		vertex 319.192 596.768 0
		vertex 301.744 590.484 0
	endloop
endfacet
facet normal 0 0 1
	outer loop
		vertex 301.744 590.484 0
		vertex 319.192 596.768 0
		vertex 301.333 595.989 0
	endloop
endfacet
facet normal 0 0 1
	outer loop
		vertex 301.744 590.484 0
		vertex 301.333 595.989 0
		vertex 301.744 590.484 0
	endloop
endfacet
facet normal 0 0 1
	outer loop
		vertex 301.744 590.484 0
		vertex 301.333 595.989 0
		vertex 301.333 595.989 0
	endloop
endfacet
facet normal 0 0 1
	outer loop
		vertex 301.744 590.484 0
		vertex 301.333 595.989 0
		vertex 296.449 589.923 0
	endloop
endfacet
facet normal 0 0 1
	outer loop
		vertex 296.449 589.923 0
		vertex 301.333 595.989 0
		vertex 301.333 595.989 0
	endloop
endfacet
facet normal 0 0 1
	outer loop
		vertex 296.449 589.923 0
		vertex 301.333 595.989 0
		vertex 296.449 589.923 0
	endloop
endfacet
facet normal 0 0 1
	outer loop
		vertex 296.449 589.923 0
		vertex 301.333 595.989 0
		vertex 295.775 595.4 0
	endloop
endfacet
facet normal 0 0 1
	outer loop
		vertex 296.449 589.923 0
		vertex 295.775 595.4 0
		vertex 296.449 589.923 0
	endloop
endfacet
facet normal 0 0 1
	outer loop
		vertex 296.449 589.923 0
		vertex 295.775 595.4 0
		vertex 295.775 595.4 0
	endloop
endfacet
facet normal 0 0 1
	outer loop
		vertex 296.449 589.923 0
		vertex 295.775 595.4 0
		vertex 291.411 589.217 0
	endloop
endfacet
facet normal 0 0 1
	outer loop
		vertex 291.411 589.217 0
		vertex 295.775 595.4 0
		vertex 295.775 595.4 0
	endloop
endfacet
facet normal 0 0 1
	outer loop
		vertex 291.411 589.217 0
		vertex 295.775 595.4 0
		vertex 291.411 589.217 0
	endloop
endfacet
facet normal 0 0 1
	outer loop
		vertex 291.411 589.217 0
		vertex 295.775 595.4 0
		vertex 290.545 594.668 0
	endloop
endfacet
facet normal 0 0 1
	outer loop
		vertex 291.411 589.217 0
		vertex 290.545 594.668 0
		vertex 291.411 589.217 0
	endloop
endfacet
facet normal 0 0 1
	outer loop
		vertex 291.411 589.217 0
		vertex 290.545 594.668 0
		vertex 290.545 594.668 0
	endloop
endfacet
facet normal 0 0 1
	outer loop
		vertex 291.411 589.217 0
		vertex 290.545 594.668 0
		vertex 286.709 588.383 0
	endloop
endfacet
facet normal 0 0 1
	outer loop
		vertex 286.709 588.383 0
		vertex 290.545 594.668 0
		vertex 290.545 594.668 0
	endloop
endfacet
facet normal 0 0 1
	outer loop
		vertex 286.709 588.383 0
		vertex 290.545 594.668 0
		vertex 286.709 588.383 0
	endloop
endfacet
facet normal 0 0 1
	outer loop
		vertex 286.709 588.383 0
		vertex 290.545 594.668 0
		vertex 285.633 593.796 0
	endloop
endfacet
facet normal 0 0 1
	outer loop
		vertex 286.709 588.383 0
		vertex 285.633 593.796 0
		vertex 286.709 588.383 0
	endloop
endfacet
facet normal 0 0 1
	outer loop
		vertex 286.709 588.383 0
		vertex 285.633 593.796 0
		vertex 285.633 593.796 0
	endloop
endfacet
facet normal 0 0 1
	outer loop
		vertex 286.709 588.383 0
		vertex 285.633 593.796 0
		vertex 282.382 587.43 0
	endloop
endfacet
facet normal 0 0 1
	outer loop
		vertex 282.382 587.43 0
		vertex 285.633 593.796 0
		vertex 285.633 593.796 0
	endloop
endfacet
facet normal 0 0 1
	outer loop
		vertex 282.382 587.43 0
		vertex 285.633 593.796 0
		vertex 282.382 587.43 0
	endloop
endfacet
facet normal 0 0 1
	outer loop
		vertex 282.382 587.43 0
		vertex 285.633 593.796 0
		vertex 281.068 592.791 0
	endloop
endfacet
facet normal 0 0 1
	outer loop
		vertex 282.382 587.43 0
		vertex 281.068 592.791 0
		vertex 282.382 587.43 0
	endloop
endfacet
facet normal 0 0 1
	outer loop
		vertex 282.382 587.43 0
		vertex 281.068 592.791 0
		vertex 281.068 592.791 0
	endloop
endfacet
facet normal 0 0 1
	outer loop
		vertex 282.382 587.43 0
		vertex 281.068 592.791 0
		vertex 278.469 586.373 0
	endloop
endfacet
facet normal 0 0 1
	outer loop
		vertex 278.469 586.373 0
		vertex 281.068 592.791 0
		vertex 281.068 592.791 0
	endloop
endfacet
facet normal 0 0 1
	outer loop
		vertex 278.469 586.373 0
		vertex 281.068 592.791 0
		vertex 278.469 586.373 0
	endloop
endfacet
facet normal 0 0 1
	outer loop
		vertex 278.469 586.373 0
		vertex 281.068 592.791 0
		vertex 276.879 591.659 0
	endloop
endfacet
facet normal 0 0 1
	outer loop
		vertex 278.469 586.373 0
		vertex 276.879 591.659 0
		vertex 278.469 586.373 0
	endloop
endfacet
facet normal 0 0 1
	outer loop
		vertex 278.469 586.373 0
		vertex 276.879 591.659 0
		vertex 276.879 591.659 0
	endloop
endfacet
facet normal 0 0 1
	outer loop
		vertex 278.469 586.373 0
		vertex 276.879 591.659 0
		vertex 275.013 585.226 0
	endloop
endfacet
facet normal 0 0 1
	outer loop
		vertex 275.013 585.226 0
		vertex 276.879 591.659 0
		vertex 276.879 591.659 0
	endloop
endfacet
facet normal 0 0 1
	outer loop
		vertex 275.013 585.226 0
		vertex 276.879 591.659 0
		vertex 275.013 585.226 0
	endloop
endfacet
facet normal 0 0 1
	outer loop
		vertex 275.013 585.226 0
		vertex 276.879 591.659 0
		vertex 273.092 590.402 0
	endloop
endfacet
facet normal 0 0 1
	outer loop
		vertex 275.013 585.226 0
		vertex 273.092 590.402 0
		vertex 275.013 585.226 0
	endloop
endfacet
facet normal 0 0 1
	outer loop
		vertex 275.013 585.226 0
		vertex 273.092 590.402 0
		vertex 273.092 590.402 0
	endloop
endfacet
facet normal 0 0 1
	outer loop
		vertex 275.013 585.226 0
		vertex 273.092 590.402 0
		vertex 272.059 584.011 0
	endloop
endfacet
facet normal 0 0 1
	outer loop
		vertex 272.059 584.011 0
		vertex 273.092 590.402 0
		vertex 273.092 590.402 0
	endloop
endfacet
facet normal 0 0 1
	outer loop
		vertex 272.059 584.011 0
		vertex 273.092 590.402 0
		vertex 272.059 584.011 0
	endloop
endfacet
facet normal 0 0 1
	outer loop
		vertex 272.059 584.011 0
		vertex 273.092 590.402 0
		vertex 269.729 589.019 0
	endloop
endfacet
facet normal 0 0 1
	outer loop
		vertex 272.059 584.011 0
		vertex 269.729 589.019 0
		vertex 272.059 584.011 0
	endloop
endfacet
facet normal 0 0 1
	outer loop
		vertex 272.059 584.011 0
		vertex 269.729 589.019 0
		vertex 269.729 589.019 0
	endloop
endfacet
facet normal 0 0 1
	outer loop
		vertex 272.059 584.011 0
		vertex 269.729 589.019 0
		vertex 269.66 582.76 0
	endloop
endfacet
facet normal 0 0 1
	outer loop
		vertex 269.66 582.76 0
		vertex 269.729 589.019 0
		vertex 269.729 589.019 0
	endloop
endfacet
facet normal 0 0 1
	outer loop
		vertex 269.66 582.76 0
		vertex 269.729 589.019 0
		vertex 269.66 582.76 0
	endloop
endfacet
facet normal 0 0 1
	outer loop
		vertex 269.66 582.76 0
		vertex 269.729 589.019 0
		vertex 266.808 587.496 0
	endloop
endfacet
facet normal 0 0 1
	outer loop
		vertex 269.66 582.76 0
		vertex 266.808 587.496 0
		vertex 269.66 582.76 0
	endloop
endfacet
facet normal 0 0 1
	outer loop
		vertex 269.66 582.76 0
		vertex 266.808 587.496 0
		vertex 266.808 587.496 0
	endloop
endfacet
facet normal 0 0 1
	outer loop
		vertex 269.66 582.76 0
		vertex 266.808 587.496 0
		vertex 267.868 581.525 0
	endloop
endfacet
facet normal 0 0 1
	outer loop
		vertex 267.868 581.525 0
		vertex 266.808 587.496 0
		vertex 266.808 587.496 0
	endloop
endfacet
facet normal 0 0 1
	outer loop
		vertex 267.868 581.525 0
		vertex 266.808 587.496 0
		vertex 267.868 581.525 0
	endloop
endfacet
facet normal 0 0 1
	outer loop
		vertex 267.868 581.525 0
		vertex 266.808 587.496 0
		vertex 264.342 585.797 0
	endloop
endfacet
facet normal 0 0 1
	outer loop
		vertex 267.868 581.525 0
		vertex 264.342 585.797 0
		vertex 267.868 581.525 0
	endloop
endfacet
facet normal 0 0 1
	outer loop
		vertex 267.868 581.525 0
		vertex 264.342 585.797 0
		vertex 264.342 585.797 0
	endloop
endfacet
facet normal 0 0 1
	outer loop
		vertex 267.868 581.525 0
		vertex 264.342 585.797 0
		vertex 266.725 580.402 0
	endloop
endfacet
facet normal 0 0 1
	outer loop
		vertex 266.725 580.402 0
		vertex 264.342 585.797 0
		vertex 264.342 585.797 0
	endloop
endfacet
facet normal 0 0 1
	outer loop
		vertex 266.725 580.402 0
		vertex 264.342 585.797 0
		vertex 266.725 580.402 0
	endloop
endfacet
facet normal 0 0 1
	outer loop
		vertex 266.725 580.402 0
		vertex 264.342 585.797 0
		vertex 262.359 583.848 0
	endloop
endfacet
facet normal 0 0 1
	outer loop
		vertex 266.725 580.402 0
		vertex 262.359 583.848 0
		vertex 266.725 580.402 0
	endloop
endfacet
facet normal 0 0 1
	outer loop
		vertex 266.725 580.402 0
		vertex 262.359 583.848 0
		vertex 262.359 583.848 0
	endloop
endfacet
facet normal 0 0 1
	outer loop
		vertex 266.725 580.402 0
		vertex 262.359 583.848 0
		vertex 266.191 579.516 0
	endloop
endfacet
facet normal 0 0 1
	outer loop
		vertex 266.191 579.516 0
		vertex 262.359 583.848 0
		vertex 262.359 583.848 0
	endloop
endfacet
facet normal 0 0 1
	outer loop
		vertex 266.191 579.516 0
		vertex 262.359 583.848 0
		vertex 266.191 579.516 0
	endloop
endfacet
facet normal 0 0 1
	outer loop
		vertex 266.191 579.516 0
		vertex 262.359 583.848 0
		vertex 260.968 581.539 0
	endloop
endfacet
facet normal 0 0 1
	outer loop
		vertex 266.191 579.516 0
		vertex 260.968 581.539 0
		vertex 266.191 579.516 0
	endloop
endfacet
facet normal 0 0 1
	outer loop
		vertex 266.191 579.516 0
		vertex 260.968 581.539 0
		vertex 260.968 581.539 0
	endloop
endfacet
facet normal 0 0 1
	outer loop
		vertex 266.191 579.516 0
		vertex 260.968 581.539 0
		vertex 266.058 578.849 0
	endloop
endfacet
facet normal 0 0 1
	outer loop
		vertex 266.058 578.849 0
		vertex 260.968 581.539 0
		vertex 260.968 581.539 0
	endloop
endfacet
facet normal 0 0 1
	outer loop
		vertex 266.058 578.849 0
		vertex 260.968 581.539 0
		vertex 266.058 578.849 0
	endloop
endfacet
facet normal 0 0 1
	outer loop
		vertex 266.058 578.849 0
		vertex 260.968 581.539 0
		vertex 260.444 578.909 0
	endloop
endfacet
facet normal 0 0 1
	outer loop
		vertex 266.058 578.849 0
		vertex 260.444 578.909 0
		vertex 266.058 578.849 0
	endloop
endfacet
facet normal 0 0 1
	outer loop
		vertex 266.058 578.849 0
		vertex 260.444 578.909 0
		vertex 260.444 578.909 0
	endloop
endfacet
facet normal 0 0 1
	outer loop
		vertex 266.058 578.849 0
		vertex 260.444 578.909 0
		vertex 266.151 578.326 0
	endloop
endfacet
facet normal 0 0 1
	outer loop
		vertex 266.151 578.326 0
		vertex 260.444 578.909 0
		vertex 260.444 578.909 0
	endloop
endfacet
facet normal 0 0 1
	outer loop
		vertex 266.151 578.326 0
		vertex 260.444 578.909 0
		vertex 266.151 578.326 0
	endloop
endfacet
facet normal 0 0 1
	outer loop
		vertex 266.151 578.326 0
		vertex 260.444 578.909 0
		vertex 260.87 576.5 0
	endloop
endfacet
facet normal 0 0 1
	outer loop
		vertex 266.151 578.326 0
		vertex 260.87 576.5 0
		vertex 266.151 578.326 0
	endloop
endfacet
facet normal 0 0 1
	outer loop
		vertex 266.151 578.326 0
		vertex 260.87 576.5 0
		vertex 260.87 576.5 0
	endloop
endfacet
facet normal 0 0 1
	outer loop
		vertex 266.151 578.326 0
		vertex 260.87 576.5 0
		vertex 266.548 577.583 0
	endloop
endfacet
facet normal 0 0 1
	outer loop
		vertex 266.548 577.583 0
		vertex 260.87 576.5 0
		vertex 260.87 576.5 0
	endloop
endfacet
facet normal 0 0 1
	outer loop
		vertex 266.548 577.583 0
		vertex 260.87 576.5 0
		vertex 266.548 577.583 0
	endloop
endfacet
facet normal 0 0 1
	outer loop
		vertex 266.548 577.583 0
		vertex 260.87 576.5 0
		vertex 261.997 574.391 0
	endloop
endfacet
facet normal 0 0 1
	outer loop
		vertex 266.548 577.583 0
		vertex 261.997 574.391 0
		vertex 266.548 577.583 0
	endloop
endfacet
facet normal 0 0 1
	outer loop
		vertex 266.548 577.583 0
		vertex 261.997 574.391 0
		vertex 261.997 574.391 0
	endloop
endfacet
facet normal 0 0 1
	outer loop
		vertex 266.548 577.583 0
		vertex 261.997 574.391 0
		vertex 267.404 576.631 0
	endloop
endfacet
facet normal 0 0 1
	outer loop
		vertex 267.404 576.631 0
		vertex 261.997 574.391 0
		vertex 261.997 574.391 0
	endloop
endfacet
facet normal 0 0 1
	outer loop
		vertex 267.404 576.631 0
		vertex 261.997 574.391 0
		vertex 267.404 576.631 0
	endloop
endfacet
facet normal 0 0 1
	outer loop
		vertex 267.404 576.631 0
		vertex 261.997 574.391 0
		vertex 263.624 572.583 0
	endloop
endfacet
facet normal 0 0 1
	outer loop
		vertex 267.404 576.631 0
		vertex 263.624 572.583 0
		vertex 267.404 576.631 0
	endloop
endfacet
facet normal 0 0 1
	outer loop
		vertex 267.404 576.631 0
		vertex 263.624 572.583 0
		vertex 263.624 572.583 0
	endloop
endfacet
facet normal 0 0 1
	outer loop
		vertex 267.404 576.631 0
		vertex 263.624 572.583 0
		vertex 268.773 575.56 0
	endloop
endfacet
facet normal 0 0 1
	outer loop
		vertex 268.773 575.56 0
		vertex 263.624 572.583 0
		vertex 263.624 572.583 0
	endloop
endfacet
facet normal 0 0 1
	outer loop
		vertex 268.773 575.56 0
		vertex 263.624 572.583 0
		vertex 268.773 575.56 0
	endloop
endfacet
facet normal 0 0 1
	outer loop
		vertex 268.773 575.56 0
		vertex 263.624 572.583 0
		vertex 265.647 570.999 0
	endloop
endfacet
facet normal 0 0 1
	outer loop
		vertex 268.773 575.56 0
		vertex 265.647 570.999 0
		vertex 268.773 575.56 0
	endloop
endfacet
facet normal 0 0 1
	outer loop
		vertex 268.773 575.56 0
		vertex 265.647 570.999 0
		vertex 265.647 570.999 0
	endloop
endfacet
facet normal 0 0 1
	outer loop
		vertex 268.773 575.56 0
		vertex 265.647 570.999 0
		vertex 270.638 574.448 0
	endloop
endfacet
facet normal 0 0 1
	outer loop
		vertex 270.638 574.448 0
		vertex 265.647 570.999 0
		vertex 265.647 570.999 0
	endloop
endfacet
facet normal 0 0 1
	outer loop
		vertex 270.638 574.448 0
		vertex 265.647 570.999 0
		vertex 270.638 574.448 0
	endloop
endfacet
facet normal 0 0 1
	outer loop
		vertex 270.638 574.448 0
		vertex 265.647 570.999 0
		vertex 268.037 569.574 0
	endloop
endfacet
facet normal 0 0 1
	outer loop
		vertex 270.638 574.448 0
		vertex 268.037 569.574 0
		vertex 270.638 574.448 0
	endloop
endfacet
facet normal 0 0 1
	outer loop
		vertex 270.638 574.448 0
		vertex 268.037 569.574 0
		vertex 268.037 569.574 0
	endloop
endfacet
facet normal 0 0 1
	outer loop
		vertex 270.638 574.448 0
		vertex 268.037 569.574 0
		vertex 272.964 573.344 0
	endloop
endfacet
facet normal 0 0 1
	outer loop
		vertex 272.964 573.344 0
		vertex 268.037 569.574 0
		vertex 268.037 569.574 0
	endloop
endfacet
facet normal 0 0 1
	outer loop
		vertex 272.964 573.344 0
		vertex 268.037 569.574 0
		vertex 272.964 573.344 0
	endloop
endfacet
facet normal 0 0 1
	outer loop
		vertex 272.964 573.344 0
		vertex 268.037 569.574 0
		vertex 270.781 568.272 0
	endloop
endfacet
facet normal 0 0 1
	outer loop
		vertex 272.964 573.344 0
		vertex 270.781 568.272 0
		vertex 272.964 573.344 0
	endloop
endfacet
facet normal 0 0 1
	outer loop
		vertex 272.964 573.344 0
		vertex 270.781 568.272 0
		vertex 270.781 568.272 0
	endloop
endfacet
facet normal 0 0 1
	outer loop
		vertex 272.964 573.344 0
		vertex 270.781 568.272 0
		vertex 275.711 572.279 0
	endloop
endfacet
facet normal 0 0 1
	outer loop
		vertex 275.711 572.279 0
		vertex 270.781 568.272 0
		vertex 270.781 568.272 0
	endloop
endfacet
facet normal 0 0 1
	outer loop
		vertex 275.711 572.279 0
		vertex 270.781 568.272 0
		vertex 275.711 572.279 0
	endloop
endfacet
facet normal 0 0 1
	outer loop
		vertex 275.711 572.279 0
		vertex 270.781 568.272 0
		vertex 273.869 567.075 0
	endloop
endfacet
facet normal 0 0 1
	outer loop
		vertex 275.711 572.279 0
		vertex 273.869 567.075 0
		vertex 275.711 572.279 0
	endloop
endfacet
facet normal 0 0 1
	outer loop
		vertex 275.711 572.279 0
		vertex 273.869 567.075 0
		vertex 273.869 567.075 0
	endloop
endfacet
facet normal 0 0 1
	outer loop
		vertex 275.711 572.279 0
		vertex 273.869 567.075 0
		vertex 278.847 571.273 0
	endloop
endfacet
facet normal 0 0 1
	outer loop
		vertex 278.847 571.273 0
		vertex 273.869 567.075 0
		vertex 273.869 567.075 0
	endloop
endfacet
facet normal 0 0 1
	outer loop
		vertex 278.847 571.273 0
		vertex 273.869 567.075 0
		vertex 278.847 571.273 0
	endloop
endfacet
facet normal 0 0 1
	outer loop
		vertex 278.847 571.273 0
		vertex 273.869 567.075 0
		vertex 277.289 565.977 0
	endloop
endfacet
facet normal 0 0 1
	outer loop
		vertex 278.847 571.273 0
		vertex 277.289 565.977 0
		vertex 278.847 571.273 0
	endloop
endfacet
facet normal 0 0 1
	outer loop
		vertex 278.847 571.273 0
		vertex 277.289 565.977 0
		vertex 277.289 565.977 0
	endloop
endfacet
facet normal 0 0 1
	outer loop
		vertex 278.847 571.273 0
		vertex 277.289 565.977 0
		vertex 282.339 570.338 0
	endloop
endfacet
facet normal 0 0 1
	outer loop
		vertex 282.339 570.338 0
		vertex 277.289 565.977 0
		vertex 277.289 565.977 0
	endloop
endfacet
facet normal 0 0 1
	outer loop
		vertex 282.339 570.338 0
		vertex 277.289 565.977 0
		vertex 282.339 570.338 0
	endloop
endfacet
facet normal 0 0 1
	outer loop
		vertex 282.339 570.338 0
		vertex 277.289 565.977 0
		vertex 281.024 564.978 0
	endloop
endfacet
facet normal 0 0 1
	outer loop
		vertex 282.339 570.338 0
		vertex 281.024 564.978 0
		vertex 282.339 570.338 0
	endloop
endfacet
facet normal 0 0 1
	outer loop
		vertex 282.339 570.338 0
		vertex 281.024 564.978 0
		vertex 281.024 564.978 0
	endloop
endfacet
facet normal 0 0 1
	outer loop
		vertex 282.339 570.338 0
		vertex 281.024 564.978 0
		vertex 286.157 569.485 0
	endloop
endfacet
facet normal 0 0 1
	outer loop
		vertex 286.157 569.485 0
		vertex 281.024 564.978 0
		vertex 281.024 564.978 0
	endloop
endfacet
facet normal 0 0 1
	outer loop
		vertex 286.157 569.485 0
		vertex 281.024 564.978 0
		vertex 286.157 569.485 0
	endloop
endfacet
facet normal 0 0 1
	outer loop
		vertex 286.157 569.485 0
		vertex 281.024 564.978 0
		vertex 285.055 564.078 0
	endloop
endfacet
facet normal 0 0 1
	outer loop
		vertex 286.157 569.485 0
		vertex 285.055 564.078 0
		vertex 286.157 569.485 0
	endloop
endfacet
facet normal 0 0 1
	outer loop
		vertex 286.157 569.485 0
		vertex 285.055 564.078 0
		vertex 285.055 564.078 0
	endloop
endfacet
facet normal 0 0 1
	outer loop
		vertex 286.157 569.485 0
		vertex 285.055 564.078 0
		vertex 290.275 568.725 0
	endloop
endfacet
facet normal 0 0 1
	outer loop
		vertex 290.275 568.725 0
		vertex 285.055 564.078 0
		vertex 285.055 564.078 0
	endloop
endfacet
facet normal 0 0 1
	outer loop
		vertex 290.275 568.725 0
		vertex 285.055 564.078 0
		vertex 290.275 568.725 0
	endloop
endfacet
facet normal 0 0 1
	outer loop
		vertex 290.275 568.725 0
		vertex 285.055 564.078 0
		vertex 289.363 563.282 0
	endloop
endfacet
facet normal 0 0 1
	outer loop
		vertex 290.275 568.725 0
		vertex 289.363 563.282 0
		vertex 290.275 568.725 0
	endloop
endfacet
facet normal 0 0 1
	outer loop
		vertex 290.275 568.725 0
		vertex 289.363 563.282 0
		vertex 289.363 563.282 0
	endloop
endfacet
facet normal 0 0 1
	outer loop
		vertex 290.275 568.725 0
		vertex 289.363 563.282 0
		vertex 294.664 568.064 0
	endloop
endfacet
facet normal 0 0 1
	outer loop
		vertex 294.664 568.064 0
		vertex 289.363 563.282 0
		vertex 289.363 563.282 0
	endloop
endfacet
facet normal 0 0 1
	outer loop
		vertex 294.664 568.064 0
		vertex 289.363 563.282 0
		vertex 294.664 568.064 0
	endloop
endfacet
facet normal 0 0 1
	outer loop
		vertex 294.664 568.064 0
		vertex 289.363 563.282 0
		vertex 293.927 562.595 0
	endloop
endfacet
facet normal 0 0 1
	outer loop
		vertex 294.664 568.064 0
		vertex 293.927 562.595 0
		vertex 294.664 568.064 0
	endloop
endfacet
facet normal 0 0 1
	outer loop
		vertex 294.664 568.064 0
		vertex 293.927 562.595 0
		vertex 293.927 562.595 0
	endloop
endfacet
facet normal 0 0 1
	outer loop
		vertex 294.664 568.064 0
		vertex 293.927 562.595 0
		vertex 299.3 567.511 0
	endloop
endfacet
facet normal 0 0 1
	outer loop
		vertex 299.3 567.511 0
		vertex 293.927 562.595 0
		vertex 293.927 562.595 0
	endloop
endfacet
facet normal 0 0 1
	outer loop
		vertex 299.3 567.511 0
		vertex 293.927 562.595 0
		vertex 299.3 567.511 0
	endloop
endfacet
facet normal 0 0 1
	outer loop
		vertex 299.3 567.511 0
		vertex 293.927 562.595 0
		vertex 298.724 562.023 0
	endloop
endfacet
facet normal 0 0 1
	outer loop
		vertex 299.3 567.511 0
		vertex 298.724 562.023 0
		vertex 299.3 567.511 0
	endloop
endfacet
facet normal 0 0 1
	outer loop
		vertex 299.3 567.511 0
		vertex 298.724 562.023 0
		vertex 298.724 562.023 0
	endloop
endfacet
facet normal 0 0 1
	outer loop
		vertex 299.3 567.511 0
		vertex 298.724 562.023 0
		vertex 304.156 567.072 0
	endloop
endfacet
facet normal 0 0 1
	outer loop
		vertex 304.156 567.072 0
		vertex 298.724 562.023 0
		vertex 298.724 562.023 0
	endloop
endfacet
facet normal 0 0 1
	outer loop
		vertex 304.156 567.072 0
		vertex 298.724 562.023 0
		vertex 304.156 567.072 0
	endloop
endfacet
facet normal 0 0 1
	outer loop
		vertex 304.156 567.072 0
		vertex 298.724 562.023 0
		vertex 303.734 561.57 0
	endloop
endfacet
facet normal 0 0 1
	outer loop
		vertex 304.156 567.072 0
		vertex 303.734 561.57 0
		vertex 304.156 567.072 0
	endloop
endfacet
facet normal 0 0 1
	outer loop
		vertex 304.156 567.072 0
		vertex 303.734 561.57 0
		vertex 303.734 561.57 0
	endloop
endfacet
facet normal 0 0 1
	outer loop
		vertex 304.156 567.072 0
		vertex 303.734 561.57 0
		vertex 309.243 566.753 0
	endloop
endfacet
facet normal 0 0 1
	outer loop
		vertex 309.243 566.753 0
		vertex 303.734 561.57 0
		vertex 303.734 561.57 0
	endloop
endfacet
facet normal 0 0 1
	outer loop
		vertex 309.243 566.753 0
		vertex 303.734 561.57 0
		vertex 309.243 566.753 0
	endloop
endfacet
facet normal 0 0 1
	outer loop
		vertex 309.243 566.753 0
		vertex 303.734 561.57 0
		vertex 308.897 561.245 0
	endloop
endfacet
endsolid

