<?xml version="1.0" encoding="UTF-8" standalone="no"?>
<!-- Created with Inkscape (http://www.inkscape.org/) -->

<svg
   inkscape:version="1.2.2 (b0a8486541, 2022-12-01)"
   sodipodi:docname="Back11-inkscapef2.svg"
   viewBox="0 0 209.02501 31.625106"
   height="31.625105"
   width="209.02501"
   id="svg2"
   version="1.1"
   xmlns:inkscape="http://www.inkscape.org/namespaces/inkscape"
   xmlns:sodipodi="http://sodipodi.sourceforge.net/DTD/sodipodi-0.dtd"
   xmlns="http://www.w3.org/2000/svg"
   xmlns:svg="http://www.w3.org/2000/svg">
  <defs
     id="defs6" />
  <sodipodi:namedview
     id="namedview4"
     pagecolor="#ffffff"
     bordercolor="#666666"
     borderopacity="1.0"
     inkscape:showpageshadow="2"
     inkscape:pageopacity="0.0"
     inkscape:pagecheckerboard="0"
     inkscape:deskcolor="#d1d1d1"
     showgrid="false"
     inkscape:zoom="1.7350933"
     inkscape:cx="336.00498"
     inkscape:cy="343.49737"
     inkscape:window-width="3440"
     inkscape:window-height="1371"
     inkscape:window-x="0"
     inkscape:window-y="32"
     inkscape:window-maximized="1"
     inkscape:current-layer="layer2" />
  <g
     inkscape:groupmode="layer"
     id="layer2"
     inkscape:label="Working 1"
     transform="translate(-209.88313,-252.09669)">
    <path
       d="m 222.644,268.312 c -1.625,-2.329 -2.708,-4.913 -3.249,-7.753 0.538,-2.84 1.614,-5.411 3.229,-7.713 2.395,-1.535 5.032,-2.558 7.912,-3.069 2.887,0.511 5.524,1.534 7.912,3.069 1.615,2.302 2.691,4.873 3.229,7.713 -0.541,2.84 -1.624,5.424 -3.249,7.753 -2.398,1.555 -5.029,2.591 -7.892,3.109 -2.863,-0.518 -5.494,-1.554 -7.892,-3.109 z m 0.797,-7.753 c 0.342,1.967 1.026,3.747 2.053,5.341 1.531,1.047 3.212,1.744 5.042,2.093 1.811,-0.352 3.478,-1.056 5.003,-2.113 1.046,-1.597 1.743,-3.371 2.092,-5.321 -0.349,-1.94 -1.046,-3.694 -2.092,-5.262 -1.525,-1.046 -3.192,-1.743 -5.003,-2.092 -1.837,0.349 -3.517,1.046 -5.042,2.092 -1.027,1.568 -1.711,3.322 -2.053,5.262 z m 24.645,-19.392 h 4.205 v 3.029 l -3.268,6.358 h -2.571 l 1.634,-6.358 z m 4.697,19.472 c 0.522,-2.863 1.565,-5.454 3.129,-7.773 2.352,-1.545 4.956,-2.574 7.813,-3.089 0.844,0.043 1.694,0.13 2.551,0.259 0.871,0.206 1.734,0.458 2.591,0.757 0.784,0.409 1.488,0.894 2.113,1.455 0.408,0.691 0.68,1.435 0.817,2.232 v 2.531 h -3.508 v -1.434 c -0.239,-0.655 -0.718,-1.233 -1.435,-1.734 -0.973,-0.319 -1.976,-0.532 -3.009,-0.638 -1.897,0.339 -3.591,1.016 -5.083,2.033 -0.966,1.558 -1.61,3.332 -1.933,5.321 0.345,2.049 1.036,3.863 2.073,5.441 1.561,0.997 3.289,1.661 5.182,1.993 1.066,-0.109 2.136,-0.329 3.209,-0.658 0.88,-0.382 1.564,-0.707 2.052,-0.976 l 1.356,-1.037 1.514,2.91 c -2.537,1.595 -5.301,2.658 -8.291,3.189 -2.863,-0.491 -5.494,-1.475 -7.892,-2.95 -1.624,-2.295 -2.707,-4.906 -3.249,-7.832 z m 24.406,4.404 v -19.87 h -3.428 v -3.069 h 7.394 v 22.7 c 0.076,0.861 0.229,1.598 0.458,2.212 0.449,0.359 1.027,0.598 1.734,0.718 l 1.116,-0.04 -0.04,3.268 c -0.565,0.04 -1.149,0.067 -1.754,0.08 -2.74,-1 -4.567,-3 -5.48,-5.999 z m 13.211,3.269 c -1.625,-2.329 -2.708,-4.913 -3.249,-7.753 0.538,-2.84 1.614,-5.411 3.229,-7.713 2.395,-1.535 5.032,-2.558 7.912,-3.069 2.887,0.511 5.524,1.534 7.912,3.069 1.615,2.302 2.691,4.873 3.229,7.713 -0.541,2.84 -1.624,5.424 -3.249,7.753 -2.398,1.555 -5.029,2.591 -7.892,3.109 -2.863,-0.518 -5.494,-1.554 -7.892,-3.109 z m 0.797,-7.753 c 0.342,1.967 1.026,3.747 2.053,5.341 1.531,1.047 3.212,1.744 5.042,2.093 1.811,-0.352 3.478,-1.056 5.003,-2.113 1.046,-1.597 1.743,-3.371 2.092,-5.321 -0.349,-1.94 -1.046,-3.694 -2.092,-5.262 -1.525,-1.046 -3.192,-1.743 -5.003,-2.092 -1.837,0.349 -3.517,1.046 -5.042,2.092 -1.027,1.568 -1.711,3.322 -2.053,5.262 z m 21.506,0.08 c 0.521,-2.863 1.564,-5.454 3.129,-7.773 2.351,-1.545 4.955,-2.574 7.812,-3.089 0.844,0.043 1.694,0.13 2.551,0.259 0.871,0.206 1.734,0.458 2.591,0.757 0.784,0.409 1.488,0.894 2.113,1.455 0.409,0.691 0.681,1.435 0.817,2.232 v 2.531 h -3.508 v -1.434 c -0.239,-0.655 -0.718,-1.233 -1.435,-1.734 -0.973,-0.319 -1.976,-0.532 -3.009,-0.638 -1.897,0.339 -3.591,1.016 -5.082,2.033 -0.967,1.558 -1.611,3.332 -1.934,5.321 0.346,2.049 1.037,3.863 2.073,5.441 1.561,0.997 3.289,1.661 5.182,1.993 1.066,-0.109 2.136,-0.329 3.209,-0.658 0.88,-0.382 1.564,-0.707 2.052,-0.976 l 1.356,-1.037 1.514,2.91 c -2.537,1.595 -5.301,2.658 -8.291,3.189 -2.863,-0.491 -5.493,-1.475 -7.892,-2.95 -1.624,-2.295 -2.707,-4.906 -3.248,-7.832 z m 22.252,10.284 v -3.07 h 3.249 v -22.68 h -3.468 v -3.069 h 7.394 v 16.083 h 3.03 l 4.105,-4.863 h -2.69 v -3.049 h 9.387 v 3.049 h -2.731 l -5.102,5.959 v 0.08 c 0.05,0.02 0.123,0.06 0.219,0.12 0.16,0.123 0.346,0.302 0.558,0.538 0.243,0.309 0.489,0.647 0.738,1.016 l 3.508,5.999 c 0.465,0.409 1.062,0.681 1.793,0.817 h 1.316 v 3.07 h -3.109 c -0.827,-0.06 -1.525,-0.18 -2.093,-0.359 -0.429,-0.385 -0.861,-0.904 -1.296,-1.555 l -4.085,-6.975 c -0.485,-0.409 -1.123,-0.681 -1.914,-0.817 h -1.634 v 6.636 h 2.77 v 3.07 z m 37.951,-24.773 v -4.046 h 4.165 v 4.046 z m -3.149,24.773 v -3.07 h 3.228 v -14.529 h -3.427 v -3.049 h 7.394 v 17.578 h 3.268 v 3.07 z m 13.714,0 v -3.07 h 3.229 v -13.632 c -0.149,-0.448 -0.448,-0.747 -0.897,-0.897 h -2.531 v -3.049 h 4.664 c 1.305,0.379 2.175,1.136 2.61,2.272 v 1.076 l -0.139,1.176 h 0.1 c 0.186,-0.389 0.425,-0.807 0.717,-1.255 0.422,-0.519 0.907,-1.064 1.455,-1.635 0.717,-0.551 1.541,-1.056 2.471,-1.514 1.083,-0.309 2.213,-0.515 3.388,-0.618 2.033,0.329 3.761,0.986 5.182,1.973 0.837,1.641 1.395,3.62 1.674,5.939 v 10.164 h 3.269 v 3.07 h -7.235 v -12.317 c -0.133,-1.471 -0.398,-2.754 -0.797,-3.847 -0.771,-0.677 -1.794,-1.129 -3.069,-1.355 -1.837,0.392 -3.492,1.176 -4.963,2.352 -0.967,1.714 -1.611,3.574 -1.933,5.58 v 6.517 h 3.269 v 3.07 z m 29.279,0 v -4.285 h 4.245 v 4.285 z m 10.449,0 v -4.285 h 4.245 v 4.285 z m 10.449,0 v -4.285 h 4.245 v 4.285 z m -211.004,-2.611 c -1.625,-2.329 -2.708,-4.913 -3.249,-7.753 0.538,-2.84 1.614,-5.411 3.229,-7.713 2.395,-1.535 5.032,-2.558 7.912,-3.069 2.887,0.511 5.524,1.534 7.912,3.069 1.615,2.302 2.691,4.873 3.229,7.713 -0.541,2.84 -1.624,5.424 -3.249,7.753 -2.398,1.555 -5.029,2.591 -7.892,3.109 -2.863,-0.518 -5.494,-1.554 -7.892,-3.109 z m 0.797,-7.753 c 0.342,1.967 1.026,3.747 2.053,5.341 1.531,1.047 3.212,1.744 5.042,2.093 1.811,-0.352 3.478,-1.056 5.003,-2.113 1.046,-1.597 1.743,-3.371 2.092,-5.321 -0.349,-1.94 -1.046,-3.694 -2.092,-5.262 -1.525,-1.046 -3.192,-1.743 -5.003,-2.092 -1.837,0.349 -3.517,1.046 -5.042,2.092 -1.027,1.568 -1.711,3.322 -2.053,5.262 z m 24.645,-19.392 h 4.205 v 3.029 l -3.268,6.358 h -2.571 l 1.634,-6.358 z m 4.697,19.472 c 0.522,-2.863 1.565,-5.454 3.129,-7.773 2.352,-1.545 4.956,-2.574 7.813,-3.089 0.844,0.043 1.694,0.13 2.551,0.259 0.871,0.206 1.734,0.458 2.591,0.757 0.784,0.409 1.488,0.894 2.113,1.455 0.408,0.691 0.68,1.435 0.817,2.232 v 2.531 h -3.508 v -1.434 c -0.239,-0.655 -0.718,-1.233 -1.435,-1.734 -0.973,-0.319 -1.976,-0.532 -3.009,-0.638 -1.897,0.339 -3.591,1.016 -5.083,2.033 -0.966,1.558 -1.61,3.332 -1.933,5.321 0.345,2.049 1.036,3.863 2.073,5.441 1.561,0.997 3.289,1.661 5.182,1.993 1.066,-0.109 2.136,-0.329 3.209,-0.658 0.88,-0.382 1.564,-0.707 2.052,-0.976 l 1.356,-1.037 1.514,2.91 c -2.537,1.595 -5.301,2.658 -8.291,3.189 -2.863,-0.491 -5.494,-1.475 -7.892,-2.95 -1.624,-2.295 -2.707,-4.906 -3.249,-7.832 z m 24.406,4.404 v -19.87 h -3.428 v -3.069 h 7.394 v 22.7 c 0.076,0.861 0.229,1.598 0.458,2.212 0.449,0.359 1.027,0.598 1.734,0.718 l 1.116,-0.04 -0.04,3.268 c -0.565,0.04 -1.149,0.067 -1.754,0.08 -2.74,-1 -4.567,-3 -5.48,-5.999 z m 13.211,3.269 c -1.625,-2.329 -2.708,-4.913 -3.249,-7.753 0.538,-2.84 1.614,-5.411 3.229,-7.713 2.395,-1.535 5.032,-2.558 7.912,-3.069 2.887,0.511 5.524,1.534 7.912,3.069 1.615,2.302 2.691,4.873 3.229,7.713 -0.541,2.84 -1.624,5.424 -3.249,7.753 -2.398,1.555 -5.029,2.591 -7.892,3.109 -2.863,-0.518 -5.494,-1.554 -7.892,-3.109 z m 0.797,-7.753 c 0.342,1.967 1.026,3.747 2.053,5.341 1.531,1.047 3.212,1.744 5.042,2.093 1.811,-0.352 3.478,-1.056 5.003,-2.113 1.046,-1.597 1.743,-3.371 2.092,-5.321 -0.349,-1.94 -1.046,-3.694 -2.092,-5.262 -1.525,-1.046 -3.192,-1.743 -5.003,-2.092 -1.837,0.349 -3.517,1.046 -5.042,2.092 -1.027,1.568 -1.711,3.322 -2.053,5.262 z m 21.506,0.08 c 0.521,-2.863 1.564,-5.454 3.129,-7.773 2.351,-1.545 4.955,-2.574 7.812,-3.089 0.844,0.043 1.694,0.13 2.551,0.259 0.871,0.206 1.734,0.458 2.591,0.757 0.784,0.409 1.488,0.894 2.113,1.455 0.409,0.691 0.681,1.435 0.817,2.232 v 2.531 h -3.508 v -1.434 c -0.239,-0.655 -0.718,-1.233 -1.435,-1.734 -0.973,-0.319 -1.976,-0.532 -3.009,-0.638 -1.897,0.339 -3.591,1.016 -5.082,2.033 -0.967,1.558 -1.611,3.332 -1.934,5.321 0.346,2.049 1.037,3.863 2.073,5.441 1.561,0.997 3.289,1.661 5.182,1.993 1.066,-0.109 2.136,-0.329 3.209,-0.658 0.88,-0.382 1.564,-0.707 2.052,-0.976 l 1.356,-1.037 1.514,2.91 c -2.537,1.595 -5.301,2.658 -8.291,3.189 -2.863,-0.491 -5.493,-1.475 -7.892,-2.95 -1.624,-2.295 -2.707,-4.906 -3.248,-7.832 z m 22.252,10.284 v -3.07 h 3.249 v -22.68 h -3.468 v -3.069 h 7.394 v 16.083 h 3.03 l 4.105,-4.863 h -2.69 v -3.049 h 9.387 v 3.049 h -2.731 l -5.102,5.959 v 0.08 c 0.05,0.02 0.123,0.06 0.219,0.12 0.16,0.123 0.346,0.302 0.558,0.538 0.243,0.309 0.489,0.647 0.738,1.016 l 3.508,5.999 c 0.465,0.409 1.062,0.681 1.793,0.817 h 1.316 v 3.07 h -3.109 c -0.827,-0.06 -1.525,-0.18 -2.093,-0.359 -0.429,-0.385 -0.861,-0.904 -1.296,-1.555 l -4.085,-6.975 c -0.485,-0.409 -1.123,-0.681 -1.914,-0.817 h -1.634 v 6.636 h 2.77 v 3.07 z m 37.951,-24.773 v -4.046 h 4.165 v 4.046 z m -3.149,24.773 v -3.07 h 3.228 v -14.529 h -3.427 v -3.049 h 7.394 v 17.578 h 3.268 v 3.07 z m 13.714,0 v -3.07 h 3.229 v -13.632 c -0.149,-0.448 -0.448,-0.747 -0.897,-0.897 h -2.531 v -3.049 h 4.664 c 1.305,0.379 2.175,1.136 2.61,2.272 v 1.076 l -0.139,1.176 h 0.1 c 0.186,-0.389 0.425,-0.807 0.717,-1.255 0.422,-0.519 0.907,-1.064 1.455,-1.635 0.717,-0.551 1.541,-1.056 2.471,-1.514 1.083,-0.309 2.213,-0.515 3.388,-0.618 2.033,0.329 3.761,0.986 5.182,1.973 0.837,1.641 1.395,3.62 1.674,5.939 v 10.164 h 3.269 v 3.07 h -7.235 v -12.317 c -0.133,-1.471 -0.398,-2.754 -0.797,-3.847 -0.771,-0.677 -1.794,-1.129 -3.069,-1.355 -1.837,0.392 -3.492,1.176 -4.963,2.352 -0.967,1.714 -1.611,3.574 -1.933,5.58 v 6.517 h 3.269 v 3.07 z m 29.279,0 v -4.285 h 4.245 v 4.285 z m 10.449,0 v -4.285 h 4.245 v 4.285 z m 10.449,0 v -4.285 h 4.245 v 4.285 z"
       style="font-size:40.8168px;font-family:'Museo Slab 500';-inkscape-font-specification:MuseoSlab-500;stroke-width:1.27553"
       transform="scale(0.956645,1.04532)"
       id="text21050-8" />
  </g>
</svg>
